<svg width="80" height="33" viewBox="0 0 80 33" fill="none" xmlns="http://www.w3.org/2000/svg">
<path d="M75.6957 17.8876C75.7276 15.409 77.0587 13.0637 79.1704 11.7655C77.8382 9.86298 75.6069 8.65672 73.2855 8.58409C70.8095 8.3242 68.4092 10.0657 67.1475 10.0657C65.8613 10.0657 63.9187 8.6099 61.8269 8.65294C59.1002 8.74103 56.5583 10.2913 55.2317 12.6751C52.3801 17.6122 54.5071 24.8681 57.2387 28.8589C58.6054 30.8131 60.2027 32.996 62.2927 32.9186C64.3378 32.8338 65.1017 31.6145 67.5704 31.6145C70.0162 31.6145 70.7328 32.9186 72.8652 32.8694C75.0597 32.8337 76.4424 30.9065 77.7612 28.9338C78.7431 27.5414 79.4987 26.0025 80 24.374C77.421 23.2832 75.6987 20.6878 75.6957 17.8876Z" fill="#B2B2B2"/>
<path d="M71.6679 5.95954C72.8645 4.52311 73.454 2.67681 73.3113 0.812744C71.4832 1.00475 69.7945 1.87846 68.5818 3.25978C67.3959 4.60941 66.7788 6.42322 66.8954 8.21604C68.7242 8.23487 70.522 7.38484 71.6679 5.95954Z" fill="#B2B2B2"/>
<path d="M0.588846 31.4057L14.4883 16.9893L0.600491 2.59863C0.22955 2.82268 0 3.34143 0 4.02047V29.9977C0.0049749 30.6767 0.226223 31.1575 0.588846 31.4057Z" fill="#B2B2B2"/>
<path d="M14.986 16.5914L19.1262 12.2967L2.26592 2.70752C1.98201 2.53643 1.65953 2.44605 1.33109 2.44556L14.9844 16.5897L14.986 16.5914Z" fill="#B2B2B2"/>
<path d="M14.9866 17.3899L1.29004 31.5961C1.63381 31.6021 1.97242 31.509 2.26812 31.3272L19.1617 21.7123L14.9866 17.3899Z" fill="#B2B2B2"/>
<path d="M25.2344 15.7763L19.6237 12.5793L15.3704 16.9913L19.6553 21.4309L25.2327 18.2425C26.4187 17.5652 26.4187 16.4502 25.2344 15.7763Z" fill="#B2B2B2"/>
</svg>
